<?xml version="1.0" encoding="utf-8"?>
<!-- Generator: Adobe Illustrator 27.3.1, SVG Export Plug-In . SVG Version: 6.00 Build 0)  -->
<svg version="1.1" id="Слой_1" xmlns="http://www.w3.org/2000/svg" xmlns:xlink="http://www.w3.org/1999/xlink" x="0px" y="0px"
	 viewBox="0 0 1920 1080" style="enable-background:new 0 0 1920 1080;" xml:space="preserve">
<style type="text/css">
	.st0{fill:url(#SVGID_1_);}
	.st1{fill:url(#SVGID_00000059988502232353919860000003472118841193898896_);}
	.st2{fill:url(#SVGID_00000147913906842132652890000010048901254481668277_);}
	.st3{fill:url(#SVGID_00000173840812676736557430000001306015804030803865_);}
</style>
<linearGradient id="SVGID_1_" gradientUnits="userSpaceOnUse" x1="-144.4336" y1="1071.5898" x2="903.1713" y2="400.3877">
	<stop  offset="0" style="stop-color:#2EACDC"/>
	<stop  offset="0.9997" style="stop-color:#032EFC"/>
	<stop  offset="1" style="stop-color:#032EFC"/>
	<stop  offset="1" style="stop-color:#ECF7FC"/>
	<stop  offset="1" style="stop-color:#FFFFFF"/>
</linearGradient>
<path class="st0" d="M-186.2,524.2c195.1,33.3,257.4,93.7,275.6,146c18.2,52.1-9.9,88.4,14.3,172c5.5,19.1,28.2,94.1,93.9,152
	c96.5,85.1,188.4,47.5,261.3,140c19.2,24.3,41.1,52.1,34.7,79c-24.9,105.1-492.5,241.2-719.7-1
	C-383.7,1044.1-383.7,738.5-186.2,524.2z"/>
<linearGradient id="SVGID_00000119825124092859112370000010092262231022572185_" gradientUnits="userSpaceOnUse" x1="2290.7197" y1="1096.1489" x2="1325.2059" y2="722.9595">
	<stop  offset="0" style="stop-color:#2EACDC"/>
	<stop  offset="0.9997" style="stop-color:#032EFC"/>
	<stop  offset="1" style="stop-color:#032EFC"/>
	<stop  offset="1" style="stop-color:#ECF7FC"/>
</linearGradient>
<path style="fill:url(#SVGID_00000119825124092859112370000010092262231022572185_);" d="M2103.1,683.2c-66.8-31.7-180.3,8-211,74
	c-21.2,45.7,7.9,81.1-21,142c-4.6,9.7-28.7,60.6-77,81c-98.1,41.5-202-82.9-263-42c-26.8,18-76.2,100.3-66.5,131.6
	c40.1,130.2,583.9,242.9,726.7,48.5C2274.9,1004.5,2202.2,730.2,2103.1,683.2z"/>
<linearGradient id="SVGID_00000180324447471607283040000008835202759190097846_" gradientUnits="userSpaceOnUse" x1="2083.8015" y1="30.5363" x2="1173.7357" y2="301.8863">
	<stop  offset="0" style="stop-color:#2EACDC"/>
	<stop  offset="0.9997" style="stop-color:#032EFC"/>
	<stop  offset="1" style="stop-color:#032EFC"/>
	<stop  offset="1" style="stop-color:#ECF7FC"/>
	<stop  offset="1" style="stop-color:#FFFFFF"/>
</linearGradient>
<path style="fill:url(#SVGID_00000180324447471607283040000008835202759190097846_);" d="M1430.7-55.1c-17.3,65.7,63.5,150.1,73,160
	c68.3,71.4,121.9,50.1,166,114c49.5,71.6,3.4,129.4,55,182c40.6,41.5,114.8,52.2,167,32c50.9-19.7,47.1-55.8,125-110
	c58.3-40.5,70.7-27.5,95-56c56.4-66.1,26.4-178.8,13-229c-6.7-25-22.8-85.7-58-130C1924.5-271.1,1466.3-190.3,1430.7-55.1z"/>
<linearGradient id="SVGID_00000006672001391644206540000016013927617405179302_" gradientUnits="userSpaceOnUse" x1="-17.3158" y1="5.3345" x2="662.7975" y2="307.3886">
	<stop  offset="0" style="stop-color:#2EACDC"/>
	<stop  offset="0.9997" style="stop-color:#032EFC"/>
	<stop  offset="1" style="stop-color:#032EFC"/>
	<stop  offset="1" style="stop-color:#ECF7FC"/>
	<stop  offset="1" style="stop-color:#FFFFFF"/>
</linearGradient>
<path style="fill:url(#SVGID_00000006672001391644206540000016013927617405179302_);" d="M7.5,216.5c62.8,20.9,109.1-125.2,245-132
	c33.8-1.7,77.9,5,111-25c2.9-2.6,35.8-33.1,28-60c-13.6-47.2-141.1-41.9-332-34c-39.8,1.7-63,3.6-82,21
	C-81.3,40.2-52.4,196.6,7.5,216.5z"/>
</svg>
