<?xml version="1.0" encoding="utf-8"?>
<!-- Generator: Adobe Illustrator 27.3.1, SVG Export Plug-In . SVG Version: 6.00 Build 0)  -->
<svg version="1.1" id="Слой_1" xmlns="http://www.w3.org/2000/svg" xmlns:xlink="http://www.w3.org/1999/xlink" x="0px" y="0px"
	 viewBox="0 0 1080 1920" style="enable-background:new 0 0 1080 1920;" xml:space="preserve">
<style type="text/css">
	.st0{fill:url(#SVGID_1_);}
	.st1{fill:url(#SVGID_00000137830931805175712490000002870880357822202300_);}
	.st2{fill:url(#SVGID_00000005970020781148351640000008459526061635753919_);}
	.st3{fill:url(#SVGID_00000155133565281207636440000016805330856776425359_);}
</style>
<linearGradient id="SVGID_1_" gradientUnits="userSpaceOnUse" x1="-186.4302" y1="99.3122" x2="861.1746" y2="770.5143" gradientTransform="matrix(1 0 0 -1 0 1920)">
	<stop  offset="0" style="stop-color:#2EACDC"/>
	<stop  offset="0.9997" style="stop-color:#032EFC"/>
	<stop  offset="1" style="stop-color:#032EFC"/>
	<stop  offset="1" style="stop-color:#ECF7FC"/>
	<stop  offset="1" style="stop-color:#FFFFFF"/>
</linearGradient>
<path class="st0" d="M-228.2,1273.3c195.1,33.3,257.4,93.7,275.6,146c18.2,52.1-9.9,88.4,14.3,172c5.5,19.1,28.2,94.1,93.9,152
	c96.5,85.1,188.4,47.5,261.3,140c19.2,24.3,41.1,52.1,34.7,79c-24.9,105.1-492.5,241.2-719.7-1
	C-425.7,1793.2-425.7,1487.6-228.2,1273.3z"/>
<linearGradient id="SVGID_00000107585214307391619450000010985429249941426593_" gradientUnits="userSpaceOnUse" x1="1267.1165" y1="36.9865" x2="636.4159" y2="280.7643" gradientTransform="matrix(1 0 0 -1 0 1920)">
	<stop  offset="0" style="stop-color:#2EACDC"/>
	<stop  offset="0.9997" style="stop-color:#032EFC"/>
	<stop  offset="1" style="stop-color:#032EFC"/>
	<stop  offset="1" style="stop-color:#ECF7FC"/>
</linearGradient>
<path style="fill:url(#SVGID_00000107585214307391619450000010985429249941426593_);" d="M1141,1595.2
	c-43.5-22.9-117.4,5.8-137.4,53.5c-13.8,33,5.1,58.6-13.7,102.6c-3,7-18.7,43.8-50.1,58.6c-63.9,30-131.5-59.9-171.2-30.4
	c-17.4,13-49.6,72.5-43.3,95.1c26.1,94.1,380.1,175.6,473.1,35.1C1252.8,1827.5,1205.5,1629.2,1141,1595.2z"/>
<linearGradient id="SVGID_00000000219087194849339620000010260648935682965389_" gradientUnits="userSpaceOnUse" x1="1377.3267" y1="1890.2483" x2="467.2609" y2="1618.8982" gradientTransform="matrix(1 0 0 -1 0 1920)">
	<stop  offset="0" style="stop-color:#2EACDC"/>
	<stop  offset="0.9997" style="stop-color:#032EFC"/>
	<stop  offset="1" style="stop-color:#032EFC"/>
	<stop  offset="1" style="stop-color:#ECF7FC"/>
	<stop  offset="1" style="stop-color:#FFFFFF"/>
</linearGradient>
<path style="fill:url(#SVGID_00000000219087194849339620000010260648935682965389_);" d="M724.2-55.9c-17.3,65.7,63.5,150.1,73,160
	c68.3,71.4,121.9,50.1,166,114c49.5,71.6,3.4,129.4,55,182c40.6,41.5,114.8,52.2,167,32c50.9-19.7,47.1-55.8,125-110
	c58.3-40.5,70.7-27.5,95-56c56.4-66.1,26.4-178.8,13-229c-6.7-25-22.8-85.7-58-130C1218-271.9,759.8-191.1,724.2-55.9z"/>
<linearGradient id="SVGID_00000057868750924895691510000010778095202593486777_" gradientUnits="userSpaceOnUse" x1="-44.4111" y1="1819.4453" x2="524.5144" y2="1566.7722" gradientTransform="matrix(1 0 0 -1 0 1920)">
	<stop  offset="0" style="stop-color:#2EACDC"/>
	<stop  offset="0.9997" style="stop-color:#032EFC"/>
	<stop  offset="1" style="stop-color:#032EFC"/>
	<stop  offset="1" style="stop-color:#ECF7FC"/>
	<stop  offset="1" style="stop-color:#FFFFFF"/>
</linearGradient>
<path style="fill:url(#SVGID_00000057868750924895691510000010778095202593486777_);" d="M-3.8,357.6
	c51.3,30,89.1-179.7,200.2-189.5c27.6-2.4,63.6,7.2,90.7-35.9c2.4-3.7,29.2-47.5,22.9-86.1C298.8-21.6,194.6-14,38.6-2.6
	c-32.5,2.4-51.5,5.2-67,30.1C-76.4,104.6-52.8,329.1-3.8,357.6z"/>
</svg>
